<svg xmlns="http://www.w3.org/2000/svg" xmlns:xlink="http://www.w3.org/1999/xlink" id="Layer_1" data-name="Layer 1" viewBox="0 0 32 32"><defs><style>.cls-1{fill:none}.cls-2{fill:#00a8b7}.cls-3{clip-path:url(#clip-path)}.cls-4{fill:#fff}.cls-5{fill:#ee4036}</style><clipPath id="clip-path"><rect width="26.62" height="30" x="2.69" y="1" class="cls-1"/></clipPath></defs><title>NeuraLegion Logo</title><rect width=".47" height="11.32" x="10.08" y="1.86" class="cls-2" transform="translate(-2.29 9.54) rotate(-45.22)"/><rect width=".47" height="18.7" x="10.22" y="1.74" class="cls-2" transform="translate(-4.05 6.41) rotate(-28.8)"/><rect width=".47" height="26.34" x="9.82" y="2.43" class="cls-2" transform="translate(-4.99 4.72) rotate(-21.33)"/><rect width="8.37" height=".47" x="6.07" y="2.68" class="cls-2"/><rect width="8.37" height=".47" x="5.95" y="11.82" class="cls-2"/><rect width="8.37" height=".47" x="5.95" y="20.17" class="cls-2"/><polygon points="14.16 20.35 5.79 12.62 6.11 12.28 14.48 20.01 14.16 20.35" class="cls-2"/><rect width=".47" height="11.39" x="9.9" y="19.68" class="cls-2" transform="translate(-15.38 15.6) rotate(-47.27)"/><rect width="11.06" height=".47" x="4.91" y="7.41" class="cls-2" transform="translate(-2.43 9.01) rotate(-42.26)"/><rect width="11" height=".47" x="5.02" y="16.06" class="cls-2" transform="translate(-8.09 10.82) rotate(-40.75)"/><rect width="17.39" height=".47" x="1.74" y="11.57" class="cls-2" transform="translate(-5.2 13.79) rotate(-55.76)"/><rect width="11.32" height=".47" x="16.03" y="7.3" class="cls-2" transform="translate(0.99 17.47) rotate(-44.79)"/><rect width="18.53" height=".47" x="12.32" y="10.79" class="cls-2" transform="translate(1.53 24.64) rotate(-61.23)"/><rect width="26.34" height=".47" x="8.78" y="15.38" class="cls-2" transform="translate(-0.58 30.37) rotate(-68.65)"/><rect width="8.37" height=".47" x="17.56" y="2.7" class="cls-2"/><rect width="8.37" height=".47" x="17.68" y="11.83" class="cls-2"/><rect width="8.37" height=".47" x="17.68" y="20.18" class="cls-2"/><rect width="11.39" height=".47" x="16.17" y="16.09" class="cls-2" transform="translate(-5.27 19.2) rotate(-42.8)"/><polygon points="17.84 29.43 17.52 29.09 25.89 21.36 26.2 21.7 17.84 29.43" class="cls-2"/><rect width=".47" height="11.06" x="21.32" y="2.13" class="cls-2" transform="translate(1.39 18.47) rotate(-47.75)"/><rect width=".47" height="11" x="21.25" y="10.81" class="cls-2" transform="translate(-4.9 21.93) rotate(-49.23)"/><rect width=".47" height="17.81" x="21.15" y="2.79" class="cls-2" transform="translate(-2.86 14.26) rotate(-34.73)"/><rect width=".47" height="16.94" x="4.37" y="2.82" class="cls-2"/><rect width=".47" height="16.94" x="27.16" y="2.82" class="cls-2"/><g class="cls-3"><path d="M17.69,2.92A1.69,1.69,0,1,1,16,1.22a1.69,1.69,0,0,1,1.69,1.7" class="cls-4"/><path d="M17.69,11.66A1.69,1.69,0,1,1,16,10a1.68,1.68,0,0,1,1.69,1.69h0" class="cls-4"/><path d="M17.69,20.4A1.69,1.69,0,1,1,16,18.71h0a1.69,1.69,0,0,1,1.69,1.69" class="cls-4"/><path d="M17.69,29.08A1.69,1.69,0,1,1,16,27.39h0a1.69,1.69,0,0,1,1.69,1.69" class="cls-4"/><path d="M16,1.48a1.45,1.45,0,1,0,1.45,1.45A1.45,1.45,0,0,0,16,1.48m0,3.37a1.92,1.92,0,1,1,1.94-1.93A1.92,1.92,0,0,1,16,4.85h0" class="cls-5"/><path d="M16,10.21a1.45,1.45,0,1,0,1.45,1.45A1.45,1.45,0,0,0,16,10.21m0,3.37a1.92,1.92,0,1,1,1.94-1.92A1.92,1.92,0,0,1,16,13.58h0" class="cls-5"/><path d="M16,19a1.46,1.46,0,1,0,1.45,1.45A1.45,1.45,0,0,0,16,19m0,3.37a1.92,1.92,0,1,1,1.94-1.92A1.92,1.92,0,0,1,16,22.32h0" class="cls-5"/><path d="M16,27.63a1.45,1.45,0,1,0,1.45,1.45A1.45,1.45,0,0,0,16,27.63M16,31a1.92,1.92,0,0,1,0-3.84A1.92,1.92,0,0,1,16,31h0" class="cls-5"/><path d="M6.29,2.92A1.7,1.7,0,1,1,4.6,1.22a1.69,1.69,0,0,1,1.69,1.7" class="cls-4"/><path d="M4.61,1.48A1.45,1.45,0,1,0,6.06,2.93,1.46,1.46,0,0,0,4.61,1.48m0,3.37A1.92,1.92,0,1,1,6.53,2.93,1.92,1.92,0,0,1,4.61,4.85" class="cls-5"/><path d="M6.29,11.66A1.7,1.7,0,1,1,4.6,10a1.69,1.69,0,0,1,1.69,1.69h0" class="cls-4"/><path d="M4.61,10.21a1.45,1.45,0,1,0,1.45,1.45,1.46,1.46,0,0,0-1.45-1.45m0,3.37a1.92,1.92,0,1,1,1.92-1.92h0a1.93,1.93,0,0,1-1.92,1.92" class="cls-5"/><path d="M6.29,20.4A1.7,1.7,0,1,1,4.6,18.71h0A1.69,1.69,0,0,1,6.29,20.4" class="cls-4"/><path d="M4.61,19A1.46,1.46,0,1,0,6.06,20.4,1.46,1.46,0,0,0,4.61,19m0,3.37A1.92,1.92,0,1,1,6.53,20.4h0a1.93,1.93,0,0,1-1.92,1.92" class="cls-5"/><path d="M25.71,2.93A1.7,1.7,0,1,0,27.4,1.24a1.7,1.7,0,0,0-1.69,1.69" class="cls-4"/><path d="M27.39,1.48a1.45,1.45,0,1,0,1.46,1.45,1.45,1.45,0,0,0-1.46-1.45m0,3.37a1.92,1.92,0,1,1,1.92-1.92h0a1.92,1.92,0,0,1-1.92,1.92" class="cls-5"/><path d="M25.71,11.67A1.7,1.7,0,1,0,27.4,10h0a1.69,1.69,0,0,0-1.69,1.69" class="cls-4"/><path d="M27.39,10.22a1.46,1.46,0,1,0,1.46,1.45,1.45,1.45,0,0,0-1.46-1.45m0,3.37a1.92,1.92,0,1,1,1.92-1.92h0a1.92,1.92,0,0,1-1.92,1.92" class="cls-5"/><path d="M25.71,20.42a1.7,1.7,0,1,0,1.69-1.7,1.69,1.69,0,0,0-1.69,1.7" class="cls-4"/><path d="M27.39,19a1.45,1.45,0,1,0,1.46,1.45A1.45,1.45,0,0,0,27.39,19m0,3.36a1.92,1.92,0,1,1,1.92-1.92h0a1.92,1.92,0,0,1-1.92,1.91" class="cls-5"/></g></svg>