<svg xmlns="http://www.w3.org/2000/svg" xmlns:xlink="http://www.w3.org/1999/xlink" id="Layer_1" x="0" y="0" version="1.1" viewBox="0 0 600 600" xml:space="preserve" style="enable-background:new 0 0 600 600"><style type="text/css">.st0{fill:#ff2b55}.st1{fill:#001267}</style><g id="Layer_2_1_"><g id="Layer_1-2"><path d="M231.4,411.4H48v-34.6h183.4c21.2,0.1,41.2-9.6,54.4-26.1l98.6-123c19.7-24.8,49.7-39.2,81.4-39.1H552v34.6 h-86.3c-21.2,0-41.2,9.6-54.4,26.1l-98.6,123C293,397.1,263,411.5,231.4,411.4z" class="st0"/><path d="M134.3,411.4H48v-34.6h86.3c21.2,0,41.2-9.6,54.4-26.1l98.6-123c19.7-24.8,49.7-39.2,81.4-39.1H552v34.6 H368.6c-21.2-0.1-41.2,9.6-54.4,26.1l-98.6,123C195.9,397.1,165.9,411.5,134.3,411.4z" class="st1"/></g></g></svg>